<svg xmlns="http://www.w3.org/2000/svg" xmlns:xlink="http://www.w3.org/1999/xlink" width="894.993" height="843.651" viewBox="0 0 894.993 843.651">
  <defs>
    <clipPath id="clip-path">
      <path id="Path_16" data-name="Path 16" d="M1670.883,249.219c0,39.652-33.022,71.8-73.76,71.8s-73.758-32.145-73.758-71.8,33.026-71.8,73.758-71.8S1670.883,209.566,1670.883,249.219Z" fill="none"/>
    </clipPath>
  </defs>
  <g id="Group_314" data-name="Group 314" transform="translate(-938.439 -198)">
    <path id="Path_10" data-name="Path 10" d="M1627.965,897.3l-24.437-28.5c85.407-69.4,137.218-166.838,145.887-274.355l38.017,2.907C1777.953,714.912,1721.323,821.435,1627.965,897.3Z" transform="translate(46 56.396)" fill="#00b429"/>
    <path id="Path_11" data-name="Path 11" d="M1450.63,985.255l-9.281-36a413.689,413.689,0,0,0,91.059-33.992l17.826,32.817A452.555,452.555,0,0,1,1450.63,985.255Z" transform="translate(46 56.396)" fill="#00b429"/>
    <path id="Path_12" data-name="Path 12" d="M924.559,725.459a424.708,424.708,0,0,1-32.12-162.629c0-137.8,64.727-264.707,177.582-348.179l24.994,32.017c-102.485,75.8-161.264,191.04-161.264,316.162A385.635,385.635,0,0,0,962.9,710.487Z" transform="translate(46 56.396)" fill="#00b429"/>
    <path id="Path_13" data-name="Path 13" d="M1755.929,452.7a410.258,410.258,0,0,0-51.886-114.117l2.682-1.663a413.36,413.36,0,0,1,52.269,114.967Z" transform="translate(46 56.396)" fill="#00b429"/>
    <path id="Path_14" data-name="Path 14" d="M1068.412,239.994l-2.021-2.387c77.174-61.909,174.849-96,275.033-96A441.7,441.7,0,0,1,1493.352,168.3l-1.12,2.9A438.423,438.423,0,0,0,1341.424,144.7C1241.975,144.7,1145.019,178.542,1068.412,239.994Z" transform="translate(46 56.396)" fill="#00b429"/>
  </g>
  <animateTransform attributeType="xml" attributeName="transform" type="rotate" from="0" to="360" dur="15.5s" additive="sum" repeatCount="indefinite" />
</svg>
