<svg xmlns="http://www.w3.org/2000/svg" xmlns:xlink="http://www.w3.org/1999/xlink" width="147.518" height="143.595" viewBox="0 0 147.518 143.595">
  <defs>
    <clipPath id="clip-path">
      <path id="Path_16" data-name="Path 16" d="M1670.883,249.219c0,39.652-33.022,71.8-73.76,71.8s-73.758-32.145-73.758-71.8,33.026-71.8,73.758-71.8S1670.883,209.566,1670.883,249.219Z" fill="none"/>
    </clipPath>
  </defs>
  <g id="Group_8" data-name="Group 8" transform="translate(-1523.365 -177.421)">
    <g id="Group_7" data-name="Group 7" clip-path="url(#clip-path)">
      <path id="Path_15" data-name="Path 15" d="M1504.121,168.084l-78.033,159.948,5.024,2.323L1509.147,170.4Zm17.147,0-78.035,159.948,5.026,2.323L1526.291,170.4Zm17.148,0-78.032,159.948,5.023,2.323L1543.44,170.4Zm17.15,0-78.034,159.948,5.021,2.323L1560.588,170.4Zm17.147,0-78.034,159.948,5.024,2.323L1577.736,170.4Zm17.149,0-78.034,159.948,5.02,2.323L1594.884,170.4Zm17.146,0-78.034,159.948,5.024,2.323L1612.031,170.4Zm17.148,0-78.033,159.948,5.021,2.323L1629.179,170.4Zm17.147,0-78.034,159.948,5.025,2.323L1646.327,170.4Zm17.149,0-78.034,159.948,5.024,2.323L1663.474,170.4Zm17.147,0-78.035,159.948,5.025,2.323L1680.623,170.4Zm17.148,0-78.034,159.948,5.025,2.323L1697.771,170.4Zm17.147,0-78.036,159.948,5.024,2.323L1714.917,170.4Zm17.148,0-78.033,159.948,5.024,2.323L1732.065,170.4Zm17.148,0-78.036,159.948,5.026,2.323L1749.213,170.4Zm17.147,0-78.032,159.948,5.024,2.323L1766.36,170.4Zm17.147,0-78.031,159.948,5.022,2.323L1783.508,170.4Z" fill="#00b429"/>
    </g>
  </g>
  <animateTransform attributeType="xml" attributeName="transform" type="rotate" from="0" to="360" dur="15.5s" repeatCount="1" />
</svg>
