<?xml version="1.0" encoding="utf-8"?>
<!-- Generator: Adobe Illustrator 16.0.0, SVG Export Plug-In . SVG Version: 6.00 Build 0)  -->
<!DOCTYPE svg PUBLIC "-//W3C//DTD SVG 1.1//EN" "http://www.w3.org/Graphics/SVG/1.1/DTD/svg11.dtd">
<svg version="1.1" id="Layer_1" xmlns="http://www.w3.org/2000/svg" xmlns:xlink="http://www.w3.org/1999/xlink" x="0px" y="0px"
	 width="900px" height="900px" viewBox="0 0 900 900" enable-background="new 0 0 900 900" xml:space="preserve">
<g>
	<path fill="#18B24B" d="M535.549,826.555L544.176,865c33.977-8.157,66.897-20.776,97.85-37.511l-17.682-34.976
		C596.254,807.704,566.379,819.155,535.549,826.555z"/>
	<path fill="#18B24B" d="M826.839,446.918c0,120.718-52.797,232.664-144.853,307.142l23.513,31.084
		c48.563-39.289,88.727-90.134,116.147-147.039C850.414,578.407,865,514.081,865,446.918H826.839z"/>
	<path fill="#18B24B" d="M833.029,333.55c-12.625-45.708-32.71-88.514-59.694-127.232l-3.87,2.885
		c26.661,38.253,46.505,80.545,58.977,125.701L833.029,333.55z"/>
	<path fill="#18B24B" d="M601.617,71.235l1.839-4.551C554.806,45.66,503.176,35,450,35c-78.293,0-153.86,23.416-218.886,67.739
		l-9.195-14.429C104.876,168.08,35,302.139,35,446.918c0,59.544,11.574,117.195,34.4,171.351l34.982-15.771
		C83.666,553.35,73.161,501.005,73.161,446.918c0-131.469,63.46-253.209,169.757-325.655l-9.179-14.405
		C297.983,63.067,372.644,39.934,450,39.934C502.54,39.934,553.552,50.465,601.617,71.235z"/>
</g>
<animateTransform attributeType="xml" attributeName="transform" type="rotate" from="0" to="360" dur="15.5s" additive="sum" repeatCount="1" />
</svg>
