<svg id="house" xmlns="http://www.w3.org/2000/svg" width="100.808" height="87.561" viewBox="0 0 100.808 87.561">
  <g id="Group_104" data-name="Group 104" transform="translate(0 0)">
    <path id="Path_92" data-name="Path 92" d="M130,430.694H56.31a1.072,1.072,0,0,0-1.072,1.072V473.7H48.956a1.071,1.071,0,0,0-1.072,1.071v2.891a1.072,1.072,0,0,0,1.072,1.072h88.4a1.072,1.072,0,0,0,1.072-1.072v-2.891a1.071,1.071,0,0,0-1.072-1.071h-6.283v-41.93A1.072,1.072,0,0,0,130,430.694Zm-59.86,29.577a1.072,1.072,0,0,1-1.072,1.072h-7.14a1.072,1.072,0,0,1-1.072-1.072v-7.14a1.071,1.071,0,0,1,1.072-1.071h7.14a1.071,1.071,0,0,1,1.072,1.071Zm0-15.882a1.072,1.072,0,0,1-1.072,1.072h-7.14a1.072,1.072,0,0,1-1.072-1.072v-7.14a1.071,1.071,0,0,1,1.072-1.071h7.14a1.071,1.071,0,0,1,1.072,1.071Zm13.827,15.882a1.072,1.072,0,0,1-1.072,1.072H75.76a1.072,1.072,0,0,1-1.071-1.072v-7.14a1.072,1.072,0,0,1,1.071-1.071H82.9a1.072,1.072,0,0,1,1.072,1.071Zm0-15.882A1.072,1.072,0,0,1,82.9,445.46H75.76a1.072,1.072,0,0,1-1.071-1.072v-7.14a1.072,1.072,0,0,1,1.071-1.071H82.9a1.072,1.072,0,0,1,1.072,1.071ZM97.8,470.217a1.072,1.072,0,0,1-1.072,1.072h-7.14a1.072,1.072,0,0,1-1.072-1.072V453.131a1.072,1.072,0,0,1,1.072-1.071h7.14a1.072,1.072,0,0,1,1.072,1.071Zm0-25.828a1.072,1.072,0,0,1-1.072,1.072h-7.14a1.072,1.072,0,0,1-1.072-1.072v-7.14a1.072,1.072,0,0,1,1.072-1.071h7.14a1.072,1.072,0,0,1,1.072,1.071Zm13.827,15.882a1.072,1.072,0,0,1-1.072,1.072h-7.14a1.072,1.072,0,0,1-1.072-1.072v-7.14a1.072,1.072,0,0,1,1.072-1.071h7.14a1.072,1.072,0,0,1,1.072,1.071Zm0-15.882a1.072,1.072,0,0,1-1.072,1.072h-7.14a1.072,1.072,0,0,1-1.072-1.072v-7.14a1.072,1.072,0,0,1,1.072-1.071h7.14a1.072,1.072,0,0,1,1.072,1.071Zm13.827,15.882a1.072,1.072,0,0,1-1.072,1.072h-7.14a1.072,1.072,0,0,1-1.072-1.072v-7.14a1.072,1.072,0,0,1,1.072-1.071h7.14a1.072,1.072,0,0,1,1.072,1.071Zm0-15.882a1.072,1.072,0,0,1-1.072,1.072h-7.14a1.072,1.072,0,0,1-1.072-1.072v-7.14a1.072,1.072,0,0,1,1.072-1.071h7.14a1.072,1.072,0,0,1,1.072,1.071Z" transform="translate(-42.753 -391.168)" fill="#00af27"/>
    <path id="Path_93" data-name="Path 93" d="M1.074,98.675H99.735a1.071,1.071,0,0,0,.8-1.78L78.145,71.516a1.071,1.071,0,0,0-.8-.363H39.379a1.071,1.071,0,0,1-1.072-1.072v-7.2a1.072,1.072,0,0,0-1.072-1.072H32.02a1.072,1.072,0,0,0-1.072,1.072v7.2a1.071,1.071,0,0,1-1.072,1.071h-6.41a1.071,1.071,0,0,0-.8.363L.271,96.894A1.071,1.071,0,0,0,1.074,98.675Z" transform="translate(-0.001 -61.812)" fill="#00af27"/>
  </g>
</svg>
