<svg xmlns="http://www.w3.org/2000/svg" width="90" height="90" viewBox="0 0 90 90">
  <g id="processor-robotics-brain-technology-artificial_intelligence" data-name="processor-robotics-brain-technology-artificial intelligence" transform="translate(976 46.008)">
    <path id="Path_57" data-name="Path 57" d="M83.259,41a4.5,4.5,0,1,0,0-3h-3.27V29h3.27a4.5,4.5,0,1,0,0-3h-3.27V18.5a1.5,1.5,0,0,0-1.5-1.5h-9v-1.92l3.48-1.155A1.521,1.521,0,0,0,73.99,12.5v-1.77a4.5,4.5,0,1,0-3,0v.69l-3.48,1.155A1.521,1.521,0,0,0,66.491,14v3h-7.5V10.733a4.5,4.5,0,1,0-3,0V17h-7.5V14a1.521,1.521,0,0,0-1.02-1.425l-3.48-1.155v-.69a4.5,4.5,0,1,0-3,0V12.5a1.521,1.521,0,0,0,1.02,1.425l3.48,1.155V17h-9A1.5,1.5,0,0,0,35,18.5v15H33.5V11A1.5,1.5,0,0,0,32,9.5a21.02,21.02,0,0,0-21,21v9.884L2.435,48.933A1.549,1.549,0,0,0,2,50v4.5A1.5,1.5,0,0,0,3.5,56H11v24a1.5,1.5,0,0,0,1.5,1.5h9a1.543,1.543,0,0,0,.9-.3L26,78.508V90.492a1.5,1.5,0,0,0,1.5,1.5H35a1.521,1.521,0,0,0,1.2-.6l13.5-18a1.476,1.476,0,0,0,.3-.9V62h4.5v28.5a1.5,1.5,0,0,0,1.5,1.5H91.987v-3h-34.5V62h3v22.5a1.5,1.5,0,0,0,1.5,1.5h22.5v-3h-21V62h3v16.5a1.5,1.5,0,0,0,1.5,1.5h24v-3h-22.5V62h3v10.5a1.5,1.5,0,0,0,1.5,1.5h10.5v-3h-9V62h3a1.5,1.5,0,0,0,1.5-1.5V53h3.27a4.5,4.5,0,1,0,0-3h-3.27V41Zm4.229-3a1.5,1.5,0,1,1-1.5,1.5A1.5,1.5,0,0,1,87.488,38Zm0-12a1.5,1.5,0,1,1-1.5,1.5A1.5,1.5,0,0,1,87.488,26Zm-15-21a1.5,1.5,0,1,1-1.5,1.5A1.5,1.5,0,0,1,72.49,5Zm-30,3a1.5,1.5,0,1,1,1.5-1.5A1.5,1.5,0,0,1,42.494,8Zm15-3a1.5,1.5,0,1,1-1.5,1.5A1.5,1.5,0,0,1,57.492,5Zm-10.5,67L34.245,88.992H29v-12.7l8.4-6.254a1.5,1.5,0,0,0,.6-1.2V62h9Zm4.5-13h-15A1.5,1.5,0,0,0,35,60.5v7.589L21,78.493H14v-24A1.5,1.5,0,0,0,12.5,53H5V50.612l8.564-8.549A1.549,1.549,0,0,0,14,41V30.5A18.024,18.024,0,0,1,30.5,12.563V35A1.5,1.5,0,0,0,32,36.5h19.5Zm1.5-25.5h-9V26h27V53h-16.5V35A1.5,1.5,0,0,0,52.993,33.5Zm24,25.5h-22.5V56h18a1.5,1.5,0,0,0,1.5-1.5v-30a1.5,1.5,0,0,0-1.5-1.5h-30a1.5,1.5,0,0,0-1.5,1.5v9h-3V20H76.989Zm10.5-9a1.5,1.5,0,1,1-1.5,1.5A1.5,1.5,0,0,1,87.488,50Z" transform="translate(-978 -48)" fill="#00b429"/>
  </g>
</svg>
