<svg xmlns="http://www.w3.org/2000/svg" width="90" height="78.729" viewBox="0 0 90 78.729">
  <g id="Typewriter" transform="translate(-2 -11)">
    <path id="Path_22" data-name="Path 22" d="M89,11H5a3.045,3.045,0,0,0-3,3.087V41.874a3.045,3.045,0,0,0,3,3.087H8V55.768a1.578,1.578,0,0,0,.214.8L12.5,63.914V65.03H11a1.522,1.522,0,0,0-1.5,1.544v9.262A1.522,1.522,0,0,0,11,77.38V88.186a1.522,1.522,0,0,0,1.5,1.544h21A1.522,1.522,0,0,0,35,88.186V77.38a1.522,1.522,0,0,0,1.5-1.544V66.574A1.522,1.522,0,0,0,35,65.03v-.9L40.561,58.4A1.567,1.567,0,0,0,41,57.311V44.962H53v12.35a1.567,1.567,0,0,0,.439,1.091L59,64.125v.9a1.522,1.522,0,0,0-1.5,1.544v9.262A1.522,1.522,0,0,0,59,77.38V88.186a1.522,1.522,0,0,0,1.5,1.544h21A1.522,1.522,0,0,0,83,88.186V77.38a1.522,1.522,0,0,0,1.5-1.544V66.574A1.522,1.522,0,0,0,83,65.03H81.5V63.914l4.285-7.351a1.578,1.578,0,0,0,.215-.8V44.962h3a3.045,3.045,0,0,0,3-3.087V14.087A3.045,3.045,0,0,0,89,11ZM12.5,68.117h21v6.175h-21ZM32,86.642H14V77.38H32Zm6-29.97L32.44,62.395A1.567,1.567,0,0,0,32,63.486V65.03H15.5V63.486a1.578,1.578,0,0,0-.214-.8L11,55.34V40.331a1.5,1.5,0,1,1,3,0v4.631a1.5,1.5,0,1,0,3,0V34.156a1.5,1.5,0,1,1,3,0V44.962a1.5,1.5,0,1,0,3,0V32.612a1.5,1.5,0,1,1,3,0v12.35a1.5,1.5,0,1,0,3,0V34.156a1.5,1.5,0,1,1,3,0V51.137a1.5,1.5,0,1,0,3,0V41.874a1.5,1.5,0,1,1,3,0Zm3-14.8a4.677,4.677,0,0,0-1.17-3.087H54.17A4.677,4.677,0,0,0,53,41.874ZM81.5,68.117v6.175h-21V68.117ZM80,86.642H62V77.38H80Zm3-31.3-4.285,7.351a1.578,1.578,0,0,0-.215.8V65.03H62V63.486a1.567,1.567,0,0,0-.439-1.091L56,56.672v-14.8a1.5,1.5,0,1,1,3,0v9.262a1.5,1.5,0,1,0,3,0V34.156a1.5,1.5,0,1,1,3,0V44.962a1.5,1.5,0,1,0,3,0V32.612a1.5,1.5,0,1,1,3,0v12.35a1.5,1.5,0,1,0,3,0V34.156a1.5,1.5,0,1,1,3,0V44.962a1.5,1.5,0,1,0,3,0V40.331a1.5,1.5,0,1,1,3,0Zm6-13.466H86V40.331a4.674,4.674,0,0,0-1.9-3.782,4.393,4.393,0,0,0-4.1-.585V34.156a4.658,4.658,0,0,0-2.229-4,4.39,4.39,0,0,0-4.479-.037,4.432,4.432,0,0,0-7.584,0,4.39,4.39,0,0,0-4.479.037,4.658,4.658,0,0,0-2.229,4V35.7H35V34.156a4.658,4.658,0,0,0-2.229-4,4.39,4.39,0,0,0-4.479-.037,4.432,4.432,0,0,0-7.584,0,4.39,4.39,0,0,0-4.479.037,4.658,4.658,0,0,0-2.229,4v1.808a4.394,4.394,0,0,0-4.1.585A4.673,4.673,0,0,0,8,40.331v1.544H5V14.087H89Z" transform="translate(0)" fill="#00b429"/>
    <path id="Path_23" data-name="Path 23" d="M25,23h3.087v3.087H25Z" transform="translate(11.465 6.525)" fill="#00b429"/>
    <path id="Path_24" data-name="Path 24" d="M29,23h3.087v3.087H29Z" transform="translate(13.459 6.525)" fill="#00b429"/>
    <path id="Path_25" data-name="Path 25" d="M33,23h3.087v3.087H33Z" transform="translate(15.453 6.525)" fill="#00b429"/>
    <path id="Path_26" data-name="Path 26" d="M37,23h3.087v3.087H37Z" transform="translate(17.447 6.525)" fill="#00b429"/>
    <path id="Path_27" data-name="Path 27" d="M17,19h3.087v3.087H17Z" transform="translate(7.477 4.35)" fill="#00b429"/>
    <path id="Path_28" data-name="Path 28" d="M13,19h3.087v3.087H13Z" transform="translate(5.483 4.35)" fill="#00b429"/>
    <path id="Path_29" data-name="Path 29" d="M21,19h3.087v3.087H21Z" transform="translate(9.471 4.35)" fill="#00b429"/>
    <path id="Path_30" data-name="Path 30" d="M25,19h3.087v3.087H25Z" transform="translate(11.465 4.35)" fill="#00b429"/>
    <path id="Path_31" data-name="Path 31" d="M29,19h3.087v3.087H29Z" transform="translate(13.459 4.35)" fill="#00b429"/>
    <path id="Path_32" data-name="Path 32" d="M33,19h3.087v3.087H33Z" transform="translate(15.453 4.35)" fill="#00b429"/>
    <path id="Path_33" data-name="Path 33" d="M37,19h3.087v3.087H37Z" transform="translate(17.447 4.35)" fill="#00b429"/>
    <path id="Path_34" data-name="Path 34" d="M41,19h3.087v3.087H41Z" transform="translate(19.441 4.35)" fill="#00b429"/>
    <path id="Path_35" data-name="Path 35" d="M45,19h3.087v3.087H45Z" transform="translate(21.435 4.35)" fill="#00b429"/>
    <path id="Path_36" data-name="Path 36" d="M49,19h3.087v3.087H49Z" transform="translate(23.429 4.35)" fill="#00b429"/>
    <path id="Path_37" data-name="Path 37" d="M17,15h3.087v3.087H17Z" transform="translate(7.477 2.175)" fill="#00b429"/>
    <path id="Path_38" data-name="Path 38" d="M13,15h3.087v3.087H13Z" transform="translate(5.483 2.175)" fill="#00b429"/>
    <path id="Path_39" data-name="Path 39" d="M9,19h3.087v3.087H9Z" transform="translate(3.806 4.35)" fill="#00b429"/>
    <path id="Path_40" data-name="Path 40" d="M9,15h3.087v3.087H9Z" transform="translate(3.806 2.175)" fill="#00b429"/>
    <path id="Path_41" data-name="Path 41" d="M21,15h3.087v3.087H21Z" transform="translate(9.471 2.175)" fill="#00b429"/>
    <path id="Path_42" data-name="Path 42" d="M25,15h3.087v3.087H25Z" transform="translate(11.465 2.175)" fill="#00b429"/>
    <path id="Path_43" data-name="Path 43" d="M29,15h3.087v3.087H29Z" transform="translate(13.459 2.175)" fill="#00b429"/>
    <path id="Path_44" data-name="Path 44" d="M33,15h3.087v3.087H33Z" transform="translate(15.453 2.175)" fill="#00b429"/>
    <path id="Path_45" data-name="Path 45" d="M37,15h3.087v3.087H37Z" transform="translate(17.447 2.175)" fill="#00b429"/>
    <path id="Path_46" data-name="Path 46" d="M41,15h3.087v3.087H41Z" transform="translate(19.441 2.175)" fill="#00b429"/>
    <path id="Path_47" data-name="Path 47" d="M45,15h3.087v3.087H45Z" transform="translate(21.435 2.175)" fill="#00b429"/>
    <path id="Path_48" data-name="Path 48" d="M49,15h3.087v3.087H49Z" transform="translate(23.429 2.175)" fill="#00b429"/>
    <path id="Path_49" data-name="Path 49" d="M53,19h3.087v3.087H53Z" transform="translate(25.107 4.35)" fill="#00b429"/>
    <path id="Path_50" data-name="Path 50" d="M53,15h3.087v3.087H53Z" transform="translate(25.107 2.175)" fill="#00b429"/>
    <path id="Path_51" data-name="Path 51" d="M50,56h3.087v3.087H50Z" transform="translate(23.475 24.467)" fill="#00b429"/>
    <path id="Path_52" data-name="Path 52" d="M12,56h3.087v3.087H12Z" transform="translate(4.985 24.467)" fill="#00b429"/>
  </g>
</svg>
