<svg xmlns="http://www.w3.org/2000/svg" width="79.099" height="87.157" viewBox="0 0 79.099 87.157">
  <g id="wealth" transform="translate(-20.41 -0.001)">
    <path id="Path_94" data-name="Path 94" d="M78.121,321.864H70.2a1.579,1.579,0,0,0-1.579,1.579V336a1.579,1.579,0,0,0,1.579,1.579h7.921A1.579,1.579,0,0,0,79.7,336V323.443A1.579,1.579,0,0,0,78.121,321.864Zm-1.579,3.159v3.122H71.779v-3.122Zm-4.763,9.4V331.3h4.763v3.122Z" transform="translate(-38.693 -258.322)" fill="#00b328"/>
    <path id="Path_95" data-name="Path 95" d="M78.121,226.2H70.2a1.579,1.579,0,0,0-1.579,1.579v12.561a1.579,1.579,0,0,0,1.579,1.579h7.921a1.579,1.579,0,0,0,1.579-1.579V227.776A1.579,1.579,0,0,0,78.121,226.2Zm-1.579,3.159v3.122H71.779v-3.122Zm-4.763,9.4v-3.122h4.763v3.122H71.779Z" transform="translate(-38.693 -181.541)" fill="#00b328"/>
    <path id="Path_96" data-name="Path 96" d="M150,321.864h-7.921a1.579,1.579,0,0,0-1.579,1.579V336a1.579,1.579,0,0,0,1.579,1.579H150A1.579,1.579,0,0,0,151.575,336V323.443A1.579,1.579,0,0,0,150,321.864Zm-1.579,3.159v3.122h-4.763v-3.122Zm-4.763,9.4V331.3h4.763v3.122Z" transform="translate(-96.378 -258.322)" fill="#00b328"/>
    <path id="Path_97" data-name="Path 97" d="M150,226.2h-7.921a1.579,1.579,0,0,0-1.579,1.579v12.561a1.579,1.579,0,0,0,1.579,1.579H150a1.579,1.579,0,0,0,1.579-1.579V227.776A1.579,1.579,0,0,0,150,226.2Zm-1.579,3.159v3.122h-4.763v-3.122Zm-4.763,9.4v-3.122h4.763v3.122h-4.763Z" transform="translate(-96.378 -181.541)" fill="#00b328"/>
    <path id="Path_98" data-name="Path 98" d="M286.183,74.164h-7.921a1.579,1.579,0,0,0-1.579,1.579V88.3a1.579,1.579,0,0,0,1.579,1.579h7.921a1.579,1.579,0,0,0,1.579-1.579V75.743A1.579,1.579,0,0,0,286.183,74.164ZM284.6,77.323v3.122h-4.763V77.323Zm-4.763,9.4V83.6H284.6v3.122Z" transform="translate(-205.679 -59.522)" fill="#00b328"/>
    <path id="Path_99" data-name="Path 99" d="M97.93,84H96.284V41.566c0-.005,0-.01,0-.016l.028,0a1.579,1.579,0,0,0,.931-2.856l-8.855-6.447V11.8c.022,0,.043,0,.064,0a1.579,1.579,0,0,0,.931-2.856L77.505.3a1.58,1.58,0,0,0-1.858,0L63.769,8.935a1.579,1.579,0,0,0,.994,2.855v3.356L60.988,12.3a1.579,1.579,0,0,0-1.879-.016L46.963,21.113l-4.208-3.064a1.579,1.579,0,0,0-1.858,0l-19.7,14.32a1.579,1.579,0,0,0-.651,1.277v6.548a1.579,1.579,0,0,0,2.508,1.277l.585-.425V84H21.989a1.579,1.579,0,1,0,0,3.159h75.94a1.579,1.579,0,1,0,0-3.158ZM82.111,77.833a1.575,1.575,0,0,0,0-3.116V66.7h4.664V84H82.111Zm6.243-14.291H80.532a1.579,1.579,0,0,0-1.579,1.579V84H61.539V41.8a1.577,1.577,0,0,0,.707-.171c.043-.022.083-.049.124-.074H93.126s0,.009,0,.013V84H89.934V65.122A1.579,1.579,0,0,0,88.355,63.542ZM67.922,11.479H85.229V33.524H67.922Zm8.653-7.946L83.15,8.32H69.988ZM60.02,15.528,64.763,19.1v16a1.579,1.579,0,0,0,1.579,1.579H86.808a1.577,1.577,0,0,0,1.321-.714l3.331,2.425H63.108V33.671a1.58,1.58,0,0,0-.65-1.277L49.647,23.067ZM23.7,34.451,41.825,21.279l18.125,13.2v2.641L42.755,24.6a1.579,1.579,0,0,0-1.858,0l-17.2,12.5Zm3.093,4.3L41.825,27.827,58.38,39.88V84H26.794Z" transform="translate(0)" fill="#00b328"/>
    <path id="Path_100" data-name="Path 100" d="M254.579,226.2h-7.921a1.579,1.579,0,0,0-1.579,1.579v12.561a1.579,1.579,0,0,0,1.579,1.579h7.921a1.579,1.579,0,0,0,1.579-1.579V227.776A1.579,1.579,0,0,0,254.579,226.2ZM253,229.356v3.122h-4.763v-3.122Zm-4.763,9.4v-3.122H253v3.122h-4.763Z" transform="translate(-180.315 -181.541)" fill="#00b328"/>
    <path id="Path_101" data-name="Path 101" d="M254.579,321.864h-7.921a1.579,1.579,0,0,0-1.579,1.579V336a1.579,1.579,0,0,0,1.579,1.579h7.921A1.579,1.579,0,0,0,256.158,336V323.443A1.579,1.579,0,0,0,254.579,321.864ZM253,325.023v3.122h-4.763v-3.122Zm-4.763,9.4V331.3H253v3.122Z" transform="translate(-180.315 -258.322)" fill="#00b328"/>
    <path id="Path_102" data-name="Path 102" d="M328.033,227.776a1.579,1.579,0,0,0-1.579-1.579h-7.921a1.579,1.579,0,0,0-1.579,1.579v12.561a1.579,1.579,0,0,0,1.579,1.579h7.921a1.579,1.579,0,0,0,1.579-1.579Zm-3.159,1.579v3.122h-4.763v-3.122Zm-4.763,9.4v-3.122h4.763v3.122h-4.763Z" transform="translate(-238 -181.541)" fill="#00b328"/>
  </g>
</svg>
